# xmcd CD database file
#
# Track frame offsets:
#	150
#	19635
#	40410
#	60702
#	75496
#	94198
#	112660
#	129292
#	143256
#	153861
#	173794
#	190782
#	204220
#	227484
#
# Disc length: 3261 seconds
#
# Revision: 2
# Processed by: cddbd v1.5.2PL0 Copyright (c) Steve Scherf et al.
# Submitted via: CDex 1.79
#
DISCID=990cbb0e
DTITLE=Night Flight - In The Begining
DYEAR=1900
DGENRE=Blues
TTITLE0=Working Man's Blues
TTITLE1=Shine
TTITLE2=Natual High
TTITLE3=Wiskey Bent And Hell Bound
TTITLE4=Betty Lou
TTITLE5=Whiskey
TTITLE6=Devil Went Down to Georgia
TTITLE7=My Favorite Memory
TTITLE8=In Too Deep
TTITLE9=Ramblin Fever
TTITLE10=South's Gonna Do It Again
TTITLE11=Tennessee Whiskey
TTITLE12=Takin' Care Of Business
TTITLE13=Mid-Nite Hour
EXTD=
EXTT0=
EXTT1=
EXTT2=
EXTT3=
EXTT4=
EXTT5=
EXTT6=
EXTT7=
EXTT8=
EXTT9=
EXTT10=
EXTT11=
EXTT12=
EXTT13=
PLAYORDER=
